# xmcd CD database file
#
# Track frame offsets:
#	150
#	42432
#	56595
#	69247
#	81330
#	104255
#	143215
#	163957
#	185755
#	213645
#
# Disc length: 3422 seconds
#
# Revision: 0
# Processed by: cddbd v1.5.1PL0 Copyright (c) Steve Scherf et al.
# Submitted via: CDex 1.51
#
DISCID=970d5c0a
DTITLE=Art Blakey - Big Artist's Library Jazz
DYEAR=1900
DGENRE=Jazz
TTITLE0=A Night In Tunisia
TTITLE1=Minority
TTITLE2=Strictly Romantic
TTITLE3=Hello
TTITLE4=Once In A While
TTITLE5=Blues
TTITLE6=Hank's Symphony
TTITLE7=Are You Real
TTITLE8=Along Came Betty
TTITLE9=Moanin'
EXTD=
EXTT0=
EXTT1=
EXTT2=
EXTT3=
EXTT4=
EXTT5=
EXTT6=
EXTT7=
EXTT8=
EXTT9=
PLAYORDER=
